# xmcd
#
# Track frame offsets: 
#        150
#        14685
#        25922
#        41772
#        54887
#        72810
#        88212
#        104220
#        114200
#        129390
#        145105
#        157010
#
# Disc length: 2250 seconds
#
# Revision: 1
# Processed by: cddbd v1.5.2PL0 Copyright (c) Steve Scherf et al.
# Submitted via: ExactAudioCopy v0.95b3
#
DISCID=a408c80c
DTITLE=Carmen Cavallaro - Cocktails With Cavallaro (Remaster)
DYEAR=1956
DGENRE=Jazz
TTITLE0=A Very Precious Love
TTITLE1=Arrivederci Roma (Goodbye To Roma)
TTITLE2=Till
TTITLE3=Witchcraft
TTITLE4=All The Way
TTITLE5=Twilight Time
TTITLE6=Another Time, Another Place
TTITLE7=Just In Time
TTITLE8=Say Darling
TTITLE9=I Remember It Well
TTITLE10=Lida Rose
TTITLE11=Return To Me
EXTD=
EXTT0=
EXTT1=
EXTT2=
EXTT3=
EXTT4=
EXTT5=
EXTT6=
EXTT7=
EXTT8=
EXTT9=
EXTT10=
EXTT11=
PLAYORDER=
